<?xml version="1.0" encoding="UTF-8"?><svg xmlns="http://www.w3.org/2000/svg" xmlns:xlink="http://www.w3.org/1999/xlink" fill-opacity="1" color-rendering="auto" color-interpolation="auto" text-rendering="auto" stroke="black" stroke-linecap="square" width="688" stroke-miterlimit="10" shape-rendering="auto" stroke-opacity="1" fill="black" stroke-dasharray="none" font-weight="normal" stroke-width="1" height="381" font-family="'Dialog'" font-style="normal" stroke-linejoin="miter" font-size="12px" stroke-dashoffset="0" image-rendering="auto">
  <!--Generated by ySVG 2.5-->
  <defs id="genericDefs"/>
  <g>
    <defs id="defs1">
      <clipPath clipPathUnits="userSpaceOnUse" id="clipPath1">
        <path d="M0 0 L688 0 L688 381 L0 381 L0 0 Z"/>
      </clipPath>
      <clipPath clipPathUnits="userSpaceOnUse" id="clipPath2">
        <path d="M-25 -2 L663 -2 L663 379 L-25 379 L-25 -2 Z"/>
      </clipPath>
    </defs>
    <g fill="white" text-rendering="geometricPrecision" shape-rendering="geometricPrecision" transform="translate(25,2)" stroke="white">
      <rect x="-25" width="688" height="381" y="-2" clip-path="url(#clipPath2)" stroke="none"/>
    </g>
    <g fill="rgb(245,245,245)" text-rendering="geometricPrecision" shape-rendering="geometricPrecision" transform="matrix(1,0,0,1,25,2)" stroke="rgb(245,245,245)">
      <rect x="-10" y="13" clip-path="url(#clipPath2)" width="110" rx="4" ry="4" height="164" stroke="none"/>
      <rect x="-10" y="13" clip-path="url(#clipPath2)" fill="rgb(235,235,235)" width="110" height="21.4609" stroke="none"/>
    </g>
    <g font-size="15px" stroke-linecap="butt" transform="matrix(1,0,0,1,25,2)" text-rendering="geometricPrecision" font-family="sans-serif" shape-rendering="geometricPrecision" stroke-miterlimit="1.45">
      <text x="56.4277" xml:space="preserve" y="28.9233" clip-path="url(#clipPath2)" stroke="none">Chico</text>
      <rect x="-10" y="13" clip-path="url(#clipPath2)" fill="none" width="110" stroke-dasharray="6,2" rx="4" ry="4" height="164"/>
    </g>
    <g fill="rgb(255,204,0)" text-rendering="geometricPrecision" shape-rendering="geometricPrecision" transform="matrix(1,0,0,1,25,2)" stroke="rgb(255,204,0)">
      <path d="M28 58 L55 58 L52 73 L55 88 L28 88 L25 73 Z" fill-rule="evenodd" clip-path="url(#clipPath2)" stroke="none"/>
    </g>
    <g text-rendering="geometricPrecision" stroke-miterlimit="1.45" shape-rendering="geometricPrecision" transform="matrix(1,0,0,1,25,2)" stroke-linecap="butt">
      <path fill="none" d="M28 58 L55 58 L52 73 L55 88 L28 88 L25 73 Z" fill-rule="evenodd" clip-path="url(#clipPath2)"/>
    </g>
    <g fill="rgb(255,204,0)" text-rendering="geometricPrecision" shape-rendering="geometricPrecision" transform="matrix(1,0,0,1,25,2)" stroke="rgb(255,204,0)">
      <path d="M28 126 L55 126 L52 141.0001 L55 156 L28 156 L25 141.0001 Z" fill-rule="evenodd" clip-path="url(#clipPath2)" stroke="none"/>
    </g>
    <g text-rendering="geometricPrecision" stroke-miterlimit="1.45" shape-rendering="geometricPrecision" transform="matrix(1,0,0,1,25,2)" stroke-linecap="butt">
      <path fill="none" d="M28 126 L55 126 L52 141.0001 L55 156 L28 156 L25 141.0001 Z" fill-rule="evenodd" clip-path="url(#clipPath2)"/>
    </g>
    <g fill="rgb(245,245,245)" text-rendering="geometricPrecision" shape-rendering="geometricPrecision" transform="matrix(1,0,0,1,25,2)" stroke="rgb(245,245,245)">
      <rect x="-10" y="207" clip-path="url(#clipPath2)" width="110" rx="4" ry="4" height="156.4609" stroke="none"/>
      <rect x="-10" y="207" clip-path="url(#clipPath2)" fill="rgb(235,235,235)" width="110" height="21.4609" stroke="none"/>
    </g>
    <g font-size="15px" stroke-linecap="butt" transform="matrix(1,0,0,1,25,2)" text-rendering="geometricPrecision" font-family="sans-serif" shape-rendering="geometricPrecision" stroke-miterlimit="1.45">
      <text x="52.6631" xml:space="preserve" y="222.9233" clip-path="url(#clipPath2)" stroke="none">Harpo</text>
      <rect x="-10" y="207" clip-path="url(#clipPath2)" fill="none" width="110" stroke-dasharray="6,2" rx="4" ry="4" height="156.4609"/>
    </g>
    <g fill="rgb(255,204,0)" text-rendering="geometricPrecision" shape-rendering="geometricPrecision" transform="matrix(1,0,0,1,25,2)" stroke="rgb(255,204,0)">
      <path d="M37.9999 243.4608 L65 243.4608 L62 258.4608 L65 273.4608 L37.9999 273.4608 L34.9999 258.4608 Z" fill-rule="evenodd" clip-path="url(#clipPath2)" stroke="none"/>
    </g>
    <g text-rendering="geometricPrecision" stroke-miterlimit="1.45" shape-rendering="geometricPrecision" transform="matrix(1,0,0,1,25,2)" stroke-linecap="butt">
      <path fill="none" d="M37.9999 243.4608 L65 243.4608 L62 258.4608 L65 273.4608 L37.9999 273.4608 L34.9999 258.4608 Z" fill-rule="evenodd" clip-path="url(#clipPath2)"/>
    </g>
    <g fill="rgb(255,204,0)" text-rendering="geometricPrecision" shape-rendering="geometricPrecision" transform="matrix(1,0,0,1,25,2)" stroke="rgb(255,204,0)">
      <path d="M37.9999 303.4609 L64.9999 303.4609 L61.9999 318.4609 L64.9999 333.4609 L37.9999 333.4609 L34.9999 318.4609 Z" fill-rule="evenodd" clip-path="url(#clipPath2)" stroke="none"/>
    </g>
    <g text-rendering="geometricPrecision" stroke-miterlimit="1.45" shape-rendering="geometricPrecision" transform="matrix(1,0,0,1,25,2)" stroke-linecap="butt">
      <path fill="none" d="M37.9999 303.4609 L64.9999 303.4609 L61.9999 318.4609 L64.9999 333.4609 L37.9999 333.4609 L34.9999 318.4609 Z" fill-rule="evenodd" clip-path="url(#clipPath2)"/>
    </g>
    <g fill="rgb(245,245,245)" text-rendering="geometricPrecision" shape-rendering="geometricPrecision" transform="matrix(1,0,0,1,25,2)" stroke="rgb(245,245,245)">
      <rect x="250" y="18.5391" clip-path="url(#clipPath2)" width="235" rx="4" ry="4" height="115.4609" stroke="none"/>
      <rect x="250" y="18.5391" clip-path="url(#clipPath2)" fill="rgb(235,235,235)" width="235" height="21.4609" stroke="none"/>
    </g>
    <g font-size="15px" stroke-linecap="butt" transform="matrix(1,0,0,1,25,2)" text-rendering="geometricPrecision" font-family="sans-serif" shape-rendering="geometricPrecision" stroke-miterlimit="1.45">
      <text x="419.5942" xml:space="preserve" y="34.4624" clip-path="url(#clipPath2)" stroke="none">Groucho</text>
      <rect x="250" y="18.5391" clip-path="url(#clipPath2)" fill="none" width="235" stroke-dasharray="6,2" rx="4" ry="4" height="115.4609"/>
    </g>
    <g fill="rgb(255,204,0)" text-rendering="geometricPrecision" shape-rendering="geometricPrecision" transform="matrix(1,0,0,1,25,2)" stroke="rgb(255,204,0)">
      <path d="M417.9999 58 L444.9999 58 L441.9999 73 L444.9999 88 L417.9999 88 L414.9999 73 Z" fill-rule="evenodd" clip-path="url(#clipPath2)" stroke="none"/>
    </g>
    <g text-rendering="geometricPrecision" stroke-miterlimit="1.45" shape-rendering="geometricPrecision" transform="matrix(1,0,0,1,25,2)" stroke-linecap="butt">
      <path fill="none" d="M417.9999 58 L444.9999 58 L441.9999 73 L444.9999 88 L417.9999 88 L414.9999 73 Z" fill-rule="evenodd" clip-path="url(#clipPath2)"/>
    </g>
    <g fill="rgb(153,204,0)" text-rendering="geometricPrecision" shape-rendering="geometricPrecision" transform="matrix(1,0,0,1,25,2)" stroke="rgb(153,204,0)">
      <path d="M289 58 L316.0001 58 L313.0001 73 L316.0001 87.9999 L289 87.9999 L286 73 Z" fill-rule="evenodd" clip-path="url(#clipPath2)" stroke="none"/>
    </g>
    <g text-rendering="geometricPrecision" stroke-miterlimit="1.45" shape-rendering="geometricPrecision" transform="matrix(1,0,0,1,25,2)" stroke-linecap="butt">
      <path fill="none" d="M289 58 L316.0001 58 L313.0001 73 L316.0001 87.9999 L289 87.9999 L286 73 Z" fill-rule="evenodd" clip-path="url(#clipPath2)"/>
      <path fill="none" d="M55 73 L278.0154 73" clip-path="url(#clipPath2)"/>
      <path d="M286.0154 73 L274.0154 68 L277.0154 73 L274.0154 78 Z" clip-path="url(#clipPath2)" stroke="none"/>
      <path fill="none" d="M64.0636 248.0695 L281.5216 87.3923" clip-path="url(#clipPath2)"/>
      <path d="M287.9558 82.6382 L275.3332 85.7481 L280.7173 87.9866 L281.2758 93.7908 Z" clip-path="url(#clipPath2)" stroke="none"/>
    </g>
    <g fill="rgb(245,245,245)" text-rendering="geometricPrecision" shape-rendering="geometricPrecision" transform="matrix(1,0,0,1,25,2)" stroke="rgb(245,245,245)">
      <rect x="250" y="253.4609" clip-path="url(#clipPath2)" width="235" rx="4" ry="4" height="110" stroke="none"/>
      <rect x="250" y="253.4609" clip-path="url(#clipPath2)" fill="rgb(235,235,235)" width="235" height="21.4609" stroke="none"/>
    </g>
    <g font-size="15px" stroke-linecap="butt" transform="matrix(1,0,0,1,25,2)" text-rendering="geometricPrecision" font-family="sans-serif" shape-rendering="geometricPrecision" stroke-miterlimit="1.45">
      <text x="423.4688" xml:space="preserve" y="269.3843" clip-path="url(#clipPath2)" stroke="none">Gummo</text>
      <rect x="250" y="253.4609" clip-path="url(#clipPath2)" fill="none" width="235" stroke-dasharray="6,2" rx="4" ry="4" height="110"/>
    </g>
    <g fill="rgb(153,204,0)" text-rendering="geometricPrecision" shape-rendering="geometricPrecision" transform="matrix(1,0,0,1,25,2)" stroke="rgb(153,204,0)">
      <path d="M297.9999 298.4609 L325 298.4609 L322 313.4609 L325 328.4609 L297.9999 328.4609 L294.9999 313.4609 Z" fill-rule="evenodd" clip-path="url(#clipPath2)" stroke="none"/>
    </g>
    <g text-rendering="geometricPrecision" stroke-miterlimit="1.45" shape-rendering="geometricPrecision" transform="matrix(1,0,0,1,25,2)" stroke-linecap="butt">
      <path fill="none" d="M297.9999 298.4609 L325 298.4609 L322 313.4609 L325 328.4609 L297.9999 328.4609 L294.9999 313.4609 Z" fill-rule="evenodd" clip-path="url(#clipPath2)"/>
    </g>
    <g fill="rgb(255,204,0)" text-rendering="geometricPrecision" shape-rendering="geometricPrecision" transform="matrix(1,0,0,1,25,2)" stroke="rgb(255,204,0)">
      <path d="M417.9999 303.461 L444.9999 303.461 L441.9999 318.461 L444.9999 333.461 L417.9999 333.461 L414.9999 318.461 Z" fill-rule="evenodd" clip-path="url(#clipPath2)" stroke="none"/>
    </g>
    <g text-rendering="geometricPrecision" stroke-miterlimit="1.45" shape-rendering="geometricPrecision" transform="matrix(1,0,0,1,25,2)" stroke-linecap="butt">
      <path fill="none" d="M417.9999 303.461 L444.9999 303.461 L441.9999 318.461 L444.9999 333.461 L417.9999 333.461 L414.9999 318.461 Z" fill-rule="evenodd" clip-path="url(#clipPath2)"/>
      <path fill="none" d="M55 141 L290.1439 300.0319" clip-path="url(#clipPath2)"/>
      <path d="M296.7706 304.5137 L289.6316 293.6493 L289.3156 299.4717 L284.0294 301.9327 Z" clip-path="url(#clipPath2)" stroke="none"/>
      <path fill="none" d="M62.0905 317.9684 L287.082 313.8776" clip-path="url(#clipPath2)"/>
      <path d="M295.0807 313.7322 L282.9918 308.9512 L286.0822 313.8958 L283.1735 318.9495 Z" clip-path="url(#clipPath2)" stroke="none"/>
    </g>
    <g fill="rgb(245,245,245)" text-rendering="geometricPrecision" shape-rendering="geometricPrecision" transform="matrix(1,0,0,1,25,2)" stroke="rgb(245,245,245)">
      <rect x="538" y="126" clip-path="url(#clipPath2)" width="110" rx="4" ry="4" height="138" stroke="none"/>
      <rect x="538" y="126" clip-path="url(#clipPath2)" fill="rgb(235,235,235)" width="110" height="21.4609" stroke="none"/>
    </g>
    <g font-size="15px" stroke-linecap="butt" transform="matrix(1,0,0,1,25,2)" text-rendering="geometricPrecision" font-family="sans-serif" shape-rendering="geometricPrecision" stroke-miterlimit="1.45">
      <text x="598.2754" xml:space="preserve" y="141.9233" clip-path="url(#clipPath2)" stroke="none">Zeppo</text>
      <rect x="538" y="126" clip-path="url(#clipPath2)" fill="none" width="110" stroke-dasharray="6,2" rx="4" ry="4" height="138"/>
    </g>
    <g fill="rgb(153,204,0)" text-rendering="geometricPrecision" shape-rendering="geometricPrecision" transform="matrix(1,0,0,1,25,2)" stroke="rgb(153,204,0)">
      <path d="M575.9998 184.4609 L602.9997 184.4609 L599.9997 199.4609 L602.9997 214.461 L575.9998 214.461 L572.9998 199.4609 Z" fill-rule="evenodd" clip-path="url(#clipPath2)" stroke="none"/>
    </g>
    <g text-rendering="geometricPrecision" stroke-miterlimit="1.45" shape-rendering="geometricPrecision" transform="matrix(1,0,0,1,25,2)" stroke-linecap="butt">
      <path fill="none" d="M575.9998 184.4609 L602.9997 184.4609 L599.9997 199.4609 L602.9997 214.461 L575.9998 214.461 L572.9998 199.4609 Z" fill-rule="evenodd" clip-path="url(#clipPath2)"/>
      <path fill="none" d="M444.311 84.4543 L568.8096 184.1012" clip-path="url(#clipPath2)"/>
      <path d="M575.0554 189.1002 L568.8111 177.6981 L568.0289 183.4763 L562.5623 185.5053 Z" clip-path="url(#clipPath2)" stroke="none"/>
      <path fill="none" d="M444.1567 307.7986 L568.5809 214.0867" clip-path="url(#clipPath2)"/>
      <path d="M574.9713 209.2738 L562.3777 212.4992 L567.7822 214.6883 L568.3939 220.4871 Z" clip-path="url(#clipPath2)" stroke="none"/>
    </g>
  </g>
</svg>
